<?xml version="1.0" standalone="no"?>
<!DOCTYPE svg PUBLIC "-//W3C//DTD SVG 20010904//EN"
 "http://www.w3.org/TR/2001/REC-SVG-20010904/DTD/svg10.dtd">
<svg version="1.0" xmlns="http://www.w3.org/2000/svg"
 width="260.000000pt" height="260.000000pt" viewBox="0 0 260.000000 260.000000"
 preserveAspectRatio="xMidYMid meet">
<metadata>
Created by potrace 1.14, written by Peter Selinger 2001-2017
</metadata>
<g transform="translate(0.000000,260.000000) scale(0.100000,-0.100000)"
fill="#000000" stroke="none">
<path d="M537 2420 c-38 -49 -113 -199 -121 -242 -2 -13 -10 -45 -17 -73 -6
-27 -12 -108 -13 -180 l-2 -130 -41 -40 c-57 -57 -125 -199 -117 -250 18 -120
63 -195 156 -257 l37 -25 -67 -18 c-37 -10 -94 -29 -127 -43 -33 -13 -75 -24
-93 -23 -25 0 -33 -3 -29 -14 3 -8 -5 -21 -19 -30 -25 -16 -25 -17 -8 -36 9
-10 12 -19 7 -19 -19 0 -25 -34 -9 -46 9 -6 16 -18 16 -27 0 -12 10 -16 39
-15 22 0 43 -2 49 -6 5 -3 34 -8 63 -12 30 -3 57 -8 60 -10 4 -2 40 -6 80 -9
88 -7 139 -14 148 -20 4 -2 14 -30 21 -62 8 -32 14 -60 15 -63 3 -11 15 -107
20 -155 9 -86 26 -133 62 -175 34 -39 117 -90 147 -90 8 0 20 -17 27 -37 17
-53 37 -82 70 -98 26 -14 29 -13 47 10 15 19 18 36 15 82 -4 56 -3 59 29 79
85 54 158 58 288 15 94 -32 148 -44 203 -45 21 -1 29 -7 34 -26 11 -50 46 -98
85 -119 41 -21 58 -20 58 4 0 7 5 15 12 17 6 2 11 20 10 39 -2 32 -4 51 -17
110 -4 17 1 39 14 61 12 19 26 70 32 113 12 86 16 98 29 90 5 -3 25 1 45 10
l37 15 -41 42 c-22 24 -41 45 -41 48 0 3 41 23 90 44 50 22 90 43 90 49 0 11
-33 52 -96 119 l-44 47 81 58 c45 32 86 65 91 73 7 11 1 34 -20 80 -16 36 -28
68 -25 73 5 9 229 157 238 157 4 0 32 19 63 43 31 24 110 77 176 117 l119 74
-7 61 c-3 33 -8 71 -10 85 -3 14 -8 41 -11 60 -2 19 -9 55 -15 80 -5 25 -11
55 -14 68 -15 69 -58 192 -68 192 -15 0 -177 -124 -243 -185 -249 -232 -485
-486 -485 -522 0 -11 32 -81 70 -156 39 -75 70 -138 70 -140 0 -2 -45 -39
-101 -82 l-101 -77 25 -27 c13 -14 49 -53 80 -86 31 -33 57 -63 57 -67 0 -4
-18 -17 -39 -28 l-40 -20 -65 98 c-36 53 -73 108 -83 122 -125 183 -157 243
-238 445 -31 77 -65 155 -76 174 -11 18 -19 34 -17 36 4 3 99 34 118 39 95 25
298 119 399 184 66 43 65 43 130 106 79 77 79 107 -3 101 -168 -13 -200 -17
-205 -20 -3 -1 -23 -6 -44 -9 -142 -23 -464 -158 -536 -225 l-30 -28 -47 18
c-26 10 -63 21 -83 25 -57 11 -234 12 -260 2 -13 -4 -25 -7 -27 -5 -2 2 3 39
12 83 18 92 25 280 13 356 -5 29 -10 62 -12 73 -3 24 -15 45 -25 45 -4 -1 -24
-23 -45 -50z"/>
</g>
</svg>
